<svg width="1274" height="1183" viewBox="0 0 1274 1183" fill="none" xmlns="http://www.w3.org/2000/svg">
<path d="M419 316C336 316 122.534 192.892 0.5 0.5V759.5C93.6984 842.683 159.509 859.262 300 838C477.074 823.671 581 831.767 720.587 897.379C759.917 915.866 795.04 942.18 826.747 971.9C888.832 1030.09 935.188 1072.6 969.194 1101.32C1012.81 1138.15 1065.72 1165.58 1121.51 1177.65C1172.35 1188.65 1214.75 1180.56 1274 1158V447C1248.4 488.701 1026.93 473.248 949.548 466.495C932.052 464.968 915.669 458.448 899.962 450.592C798.099 399.649 494.866 316 419 316Z" fill="#ECF1FD"/>
</svg>
